<svg id="Layer_1" data-name="Layer 1" xmlns="http://www.w3.org/2000/svg" viewBox="0 0 600 600">
  <defs>
    <style>
      .cls-1 {
        fill: #ef2d56;
      }
    </style>
  </defs>
  <g>
    <path class="cls-1" d="M264.44,221.71a6,6,0,0,0-6,6v33.9H232.65a6,6,0,0,0-6,6v59.67a6,6,0,0,0,6,6h65.69V221.71Zm-1.95,102a26.21,26.21,0,1,1,26.21-26.21A26.21,26.21,0,0,1,262.49,323.68Zm15.89-69.57a12.44,12.44,0,1,1,12.44-12.44A12.43,12.43,0,0,1,278.38,254.11Z"/>
    <path class="cls-1" d="M281.61,289.39a20.82,20.82,0,1,0,1.63,8.08A20.81,20.81,0,0,0,281.61,289.39Zm-11.08,11.48a8.74,8.74,0,0,1-3.17,3.84,8.55,8.55,0,0,1-4.87,1.49,8.71,8.71,0,0,1-3.4-.68,8.75,8.75,0,0,1-5.33-8,8.63,8.63,0,0,1,.69-3.39,8.72,8.72,0,0,1,3.16-3.84,8.76,8.76,0,0,1,8.27-.81,8.74,8.74,0,0,1,5.34,8A8.64,8.64,0,0,1,270.53,300.87Z"/>
    <path class="cls-1" d="M327.49,235.08a9.32,9.32,0,1,0,2.73,6.59A9.25,9.25,0,0,0,327.49,235.08ZM326,246.75a7.33,7.33,0,0,1-5.08,2.11,7.18,7.18,0,0,1-5.07-2.11,7.16,7.16,0,0,1,0-10.15,7,7,0,0,1,5.07-2.11A7.21,7.21,0,0,1,326,246.75Z"/>
    <path class="cls-1" d="M285,235.08a9.32,9.32,0,1,0,2.73,6.59A9.25,9.25,0,0,0,285,235.08Zm-1.5,11.67a7.33,7.33,0,0,1-5.08,2.11,7.18,7.18,0,0,1-5.07-2.11,7.16,7.16,0,0,1,0-10.15,7,7,0,0,1,5.07-2.11,7.21,7.21,0,0,1,5.08,12.26Z"/>
    <path class="cls-1" d="M366.63,261.63H340.85v-33.9a6,6,0,0,0-6-6h-33.9V333.32h65.69a6,6,0,0,0,6-6V267.64A6,6,0,0,0,366.63,261.63Zm-45.73-32.4a12.44,12.44,0,1,1-12.44,12.44A12.43,12.43,0,0,1,320.9,229.23Zm15.89,94.45A26.21,26.21,0,1,1,363,297.47,26.21,26.21,0,0,1,336.79,323.68Z"/>
    <path class="cls-1" d="M355.91,289.39a20.75,20.75,0,1,0,1.64,8.08A20.81,20.81,0,0,0,355.91,289.39Zm-11.08,11.48a8.72,8.72,0,0,1-3.16,3.84,8.76,8.76,0,0,1-8.27.81,8.74,8.74,0,0,1-5.34-8,8.63,8.63,0,0,1,.69-3.39,8.74,8.74,0,0,1,3.17-3.84,8.55,8.55,0,0,1,4.87-1.49,8.71,8.71,0,0,1,3.4.68,8.75,8.75,0,0,1,5.33,8A8.64,8.64,0,0,1,344.83,300.87Z"/>
  </g>
  <g>
    <path class="cls-1" d="M219.66,366a7.36,7.36,0,0,1-1,9.92,10.4,10.4,0,0,1-6.86,2.06H198.74V349.93h12.64a10.34,10.34,0,0,1,6.7,2,6.5,6.5,0,0,1,2.42,5.32,6.41,6.41,0,0,1-1.3,4.12,6.78,6.78,0,0,1-3.46,2.28A6.53,6.53,0,0,1,219.66,366Zm-14.08-4.74h4.48a4,4,0,0,0,2.58-.74,2.65,2.65,0,0,0,.9-2.18,2.72,2.72,0,0,0-.9-2.2,3.87,3.87,0,0,0-2.58-.76h-4.48Zm7.7,10.42a2.75,2.75,0,0,0,.94-2.26,2.9,2.9,0,0,0-1-2.32,4,4,0,0,0-2.7-.84h-5v6.2h5A4.06,4.06,0,0,0,213.28,371.71Z"/>
    <path class="cls-1" d="M231.12,376.45a13.76,13.76,0,0,1-5.24-5.14,15.12,15.12,0,0,1,0-14.82,13.77,13.77,0,0,1,5.24-5.12,15.24,15.24,0,0,1,14.52,0,13.53,13.53,0,0,1,5.2,5.12,15.33,15.33,0,0,1,0,14.82,13.65,13.65,0,0,1-5.2,5.14,15.2,15.2,0,0,1-14.5,0Zm12.64-6.64a9.71,9.71,0,0,0,0-11.86,7.7,7.7,0,0,0-10.8,0,9.77,9.77,0,0,0,0,11.9,7.65,7.65,0,0,0,10.8,0Z"/>
    <path class="cls-1" d="M262.56,376.45a13.76,13.76,0,0,1-5.24-5.14,15.12,15.12,0,0,1,0-14.82,13.77,13.77,0,0,1,5.24-5.12,15.24,15.24,0,0,1,14.52,0,13.53,13.53,0,0,1,5.2,5.12,15.33,15.33,0,0,1,0,14.82,13.65,13.65,0,0,1-5.2,5.14,15.2,15.2,0,0,1-14.5,0Zm12.64-6.64a9.71,9.71,0,0,0,0-11.86,7.7,7.7,0,0,0-10.8,0,9.77,9.77,0,0,0,0,11.9,7.65,7.65,0,0,0,10.8,0Z"/>
    <path class="cls-1" d="M319.78,349.93V378h-6.84V361.17L306.66,378h-5.52l-6.32-16.88V378H288V349.93h8.08l7.88,19.44,7.8-19.44Z"/>
    <path class="cls-1" d="M342,364.89a7.24,7.24,0,0,1,2,2.48,7.21,7.21,0,0,1-.34,7,7.36,7.36,0,0,1-3.14,2.68,11.24,11.24,0,0,1-4.86,1H325.3V350.13h10a11.26,11.26,0,0,1,4.84.94,6.89,6.89,0,0,1,3,2.54,6.64,6.64,0,0,1,1,3.6,6.24,6.24,0,0,1-1.34,4.1,7.47,7.47,0,0,1-3.54,2.34A5.87,5.87,0,0,1,342,364.89Zm-13.1-2.72h6.12a5.89,5.89,0,0,0,4-1.2,4.64,4.64,0,0,0,0-6.64,6,6,0,0,0-4-1.2h-6Zm10.68,11.56a4.41,4.41,0,0,0,1.52-3.56,4.5,4.5,0,0,0-1.6-3.66,6.47,6.47,0,0,0-4.28-1.34h-6.32V375h6.44A6.41,6.41,0,0,0,339.62,373.73Z"/>
    <path class="cls-1" d="M355.38,376.47a13.35,13.35,0,0,1-5.06-5.08,15.41,15.41,0,0,1,0-14.68,13.35,13.35,0,0,1,5.06-5.08,14.76,14.76,0,0,1,14.2,0,13.24,13.24,0,0,1,5,5.06,15.64,15.64,0,0,1,0,14.72,13.24,13.24,0,0,1-5,5.06,14.76,14.76,0,0,1-14.2,0Zm12.34-2.7a9.57,9.57,0,0,0,3.68-3.88,13.44,13.44,0,0,0,0-11.7,9.6,9.6,0,0,0-3.66-3.86,10.93,10.93,0,0,0-10.56,0,9.6,9.6,0,0,0-3.66,3.86,13.44,13.44,0,0,0,0,11.7,9.57,9.57,0,0,0,3.68,3.88,10.85,10.85,0,0,0,10.52,0Z"/>
    <path class="cls-1" d="M392.66,364.09,401.22,378H397.1l-6.68-10.88L384.06,378h-4l8.52-13.92-8.56-14h4.08l6.72,10.92,6.4-10.92h4.08Z"/>
  </g>
</svg>
