<svg xmlns="http://www.w3.org/2000/svg" width="48.549" height="37.116" viewBox="0 0 48.549 37.116">
  <g id="Group_62" data-name="Group 62" transform="translate(-226.65 -221.71)">
    <path id="Path_27" data-name="Path 27" d="M239.217,221.71a2,2,0,0,0-2,2v11.273h-8.576a2,2,0,0,0-2,2v19.843a2,2,0,0,0,2,2H250.49v-37.1Zm-.648,33.92a8.711,8.711,0,1,0,0-.01Zm5.284-23.135a4.132,4.132,0,1,0,0-.01Z" transform="translate(0 0)" fill="#fff"/>
    <path id="Path_28" data-name="Path 28" d="M254.9,280.881a6.924,6.924,0,1,0,.542,2.687,6.924,6.924,0,0,0-.542-2.687Zm-3.685,3.818a2.907,2.907,0,0,1-1.054,1.277,2.843,2.843,0,0,1-1.619.5,2.9,2.9,0,1,1,2.674-1.772Z" transform="translate(-9.976 -36.664)" fill="#fff"/>
    <path id="Path_29" data-name="Path 29" d="M316.87,233.258a3.1,3.1,0,1,0,.908,2.191,3.1,3.1,0,0,0-.908-2.191Zm-.5,3.881a2.438,2.438,0,0,1-1.689.7A2.387,2.387,0,0,1,313,233.764a2.328,2.328,0,0,1,1.686-.7,2.4,2.4,0,0,1,1.689,4.077Z" transform="translate(-56.686 -7.102)" fill="#fff"/>
    <path id="Path_30" data-name="Path 30" d="M274.38,233.258a3.1,3.1,0,1,0,.908,2.191A3.1,3.1,0,0,0,274.38,233.258Zm-.5,3.881a2.438,2.438,0,0,1-1.689.7,2.387,2.387,0,0,1-1.686-4.077,2.328,2.328,0,0,1,1.686-.7,2.4,2.4,0,0,1,1.689,4.077Z" transform="translate(-28.326 -7.102)" fill="#fff"/>
    <path id="Path_31" data-name="Path 31" d="M322.792,235h-8.573V223.725a2,2,0,0,0-2-2H300.95v37.109H322.8a2,2,0,0,0,2-2V237a2,2,0,0,0-2-2Zm-15.207-10.775a4.134,4.134,0,1,1-2.926,1.211A4.137,4.137,0,0,1,307.584,224.224Zm5.284,31.409a8.716,8.716,0,1,1,8.716-8.716A8.716,8.716,0,0,1,312.869,255.633Z" transform="translate(-49.592 -0.013)" fill="#fff"/>
    <path id="Path_32" data-name="Path 32" d="M329.3,280.934a6.9,6.9,0,1,0,.545,2.687A6.9,6.9,0,0,0,329.3,280.934Zm-3.685,3.818a2.9,2.9,0,0,1-5.577-1.114,2.87,2.87,0,0,1,.229-1.127,2.907,2.907,0,0,1,1.054-1.277,2.843,2.843,0,0,1,1.62-.5,2.886,2.886,0,0,1,2.674,4.014Z" transform="translate(-59.668 -36.717)" fill="#fff"/>
  </g>
</svg>
