<svg xmlns="http://www.w3.org/2000/svg" width="266.864" height="34.681" viewBox="0 0 266.864 34.681">
  <g id="Group_53" data-name="Group 53" transform="translate(-162 -7111)">
    <g id="Asset_1" data-name="Asset 1" transform="translate(146.968 7102.637)">
      <g id="Layer_2" data-name="Layer 2" transform="translate(0 0.005)">
        <g id="ELEMENTS">
          <path id="Path_503" data-name="Path 503" d="M27.46,24.962l.952-6.2H22.391V14.75a3.091,3.091,0,0,1,3.5-3.34h2.7V6.135A32.35,32.35,0,0,0,23.8,5.71c-4.893,0-8.1,2.93-8.1,8.337v4.718H10.26v6.2h5.48V39.935a23.033,23.033,0,0,0,3.355.249,22.68,22.68,0,0,0,3.34-.249V24.962Z" transform="translate(4.772 2.648)" fill="#fff"/>
        </g>
      </g>
    </g>
    <g id="Asset_3" data-name="Asset 3" transform="translate(228.872 7111.037)">
      <g id="Layer_2-2" data-name="Layer 2" transform="translate(0 0)">
        <g id="ELEMENTS-2" data-name="ELEMENTS">
          <path id="Path_504" data-name="Path 504" d="M20.384,9.09a1.494,1.494,0,1,0,1.494,1.494A1.494,1.494,0,0,0,20.384,9.09Z" transform="translate(9.328 4.489)" fill="#fff"/>
          <path id="Path_505" data-name="Path 505" d="M17.5,10.38a6.3,6.3,0,1,0,6.3,6.3A6.3,6.3,0,0,0,17.5,10.38Zm0,10.352a4.048,4.048,0,1,1,4.033-4.048A4.048,4.048,0,0,1,17.5,20.732Z" transform="translate(5.531 5.126)" fill="#fff"/>
          <path id="Path_506" data-name="Path 506" d="M24.691,31.649H14.458A7.693,7.693,0,0,1,6.78,23.926V13.738A7.693,7.693,0,0,1,14.458,6H24.691a7.708,7.708,0,0,1,7.693,7.693V23.926A7.708,7.708,0,0,1,24.691,31.649ZM14.458,8.45a5.288,5.288,0,0,0-5.273,5.288V23.926a5.288,5.288,0,0,0,5.273,5.288H24.691a5.3,5.3,0,0,0,5.288-5.288V13.738A5.3,5.3,0,0,0,24.691,8.45Z" transform="translate(3.348 2.963)" fill="#fff"/>
        </g>
      </g>
    </g>
    <g id="Asset_4" data-name="Asset 4" transform="translate(312.592 7113.974)">
      <g id="Layer_2-3" data-name="Layer 2" transform="translate(0 0)">
        <g id="ELEMENTS-3" data-name="ELEMENTS">
          <path id="Path_507" data-name="Path 507" d="M30.826,10.38a9.814,9.814,0,0,1-2.405.687c.373,0,.956-.762,1.18-1.046a4.482,4.482,0,0,0,.792-1.494v-.12a.12.12,0,0,0-.134,0A12.937,12.937,0,0,1,27.405,9.5a.194.194,0,0,1-.194,0l-.254-.254a5.034,5.034,0,0,0-1.374-.851,4.691,4.691,0,0,0-2.121-.329,5.034,5.034,0,0,0-2.017.568,5.139,5.139,0,0,0-1.628,1.315,5.064,5.064,0,0,0-.971,1.942,5.318,5.318,0,0,0,.03,2.061c0,.1,0,.12-.1.1a15.3,15.3,0,0,1-9.844-5c-.1-.134-.179-.134-.269,0a4.96,4.96,0,0,0,.851,5.871c.194.179.388.373.6.538a5.049,5.049,0,0,1-1.9-.538c-.1-.075-.164,0-.179.1s0,.359,0,.568a5.049,5.049,0,0,0,3.107,4,2.345,2.345,0,0,0,.627.194,5.243,5.243,0,0,1-1.852.134c-.134,0-.194,0-.134.164a5.213,5.213,0,0,0,3.9,3.271h.538c-.433.672-1.957,1.165-2.659,1.494a9.56,9.56,0,0,1-4.048.508H7.179c-.06,0,0,.09,0,.149a5.239,5.239,0,0,0,.837.508,13.609,13.609,0,0,0,2.7,1.076,14.415,14.415,0,0,0,14.132-3.3A14.684,14.684,0,0,0,28.72,13.084c0-.149.179-.239.284-.329a9.2,9.2,0,0,0,1.822-1.972.6.6,0,0,0,.12-.373h0S30.961,10.335,30.826,10.38Z" transform="translate(3.532 3.976)" fill="#fff"/>
        </g>
      </g>
    </g>
    <g id="Asset_5" data-name="Asset 5" transform="translate(388.934 7109.505)">
      <g id="Layer_2-4" data-name="Layer 2" transform="translate(0 0)">
        <g id="ELEMENTS-4" data-name="ELEMENTS">
          <path id="Path_508" data-name="Path 508" d="M10.291,15.067h4.872V30.516H10.291Zm2.394-7.673a1.146,1.146,0,1,1,0-.034" transform="translate(6.907 5.135)" fill="#fff"/>
          <path id="Path_509" data-name="Path 509" d="M14.73,12.062h4.618v2.105h0a5.093,5.093,0,0,1,4.55-2.5c4.855,0,5.755,3.209,5.755,7.368v8.488H24.916V19.99c0-1.783,0-4.091-2.5-4.091s-2.886,1.952-2.886,3.973v7.64h-4.8Z" transform="translate(10.277 8.141)" fill="#fff"/>
        </g>
      </g>
    </g>
  </g>
</svg>
