<svg xmlns="http://www.w3.org/2000/svg" width="112.06" height="15.911" viewBox="0 0 112.06 15.911">
  <g id="Group_8" data-name="Group 8" transform="translate(-198.74 -349.53)">
    <path id="Path_46" data-name="Path 46" d="M210.313,358.813a4.072,4.072,0,0,1-.553,5.488,5.754,5.754,0,0,1-3.8,1.14H198.74V349.923h6.993a5.72,5.72,0,0,1,3.707,1.106,3.6,3.6,0,0,1,1.339,2.943,3.546,3.546,0,0,1-.719,2.279,3.751,3.751,0,0,1-1.914,1.261A3.613,3.613,0,0,1,210.313,358.813Zm-7.789-2.622H205a2.213,2.213,0,0,0,1.427-.409,1.466,1.466,0,0,0,.5-1.206,1.5,1.5,0,0,0-.5-1.217,2.141,2.141,0,0,0-1.427-.42h-2.478Zm4.26,5.765a1.521,1.521,0,0,0,.52-1.25,1.6,1.6,0,0,0-.553-1.283,2.213,2.213,0,0,0-1.494-.465h-2.766v3.43h2.766a2.246,2.246,0,0,0,1.527-.415Z" transform="translate(0 -0.172)" fill="#fff"/>
    <path id="Path_47" data-name="Path 47" d="M227.912,364.422a7.612,7.612,0,0,1-2.9-2.844,8.365,8.365,0,0,1,0-8.2,7.618,7.618,0,0,1,2.9-2.832,8.431,8.431,0,0,1,8.033,0,7.485,7.485,0,0,1,2.877,2.832,8.481,8.481,0,0,1,0,8.2,7.552,7.552,0,0,1-2.877,2.844,8.409,8.409,0,0,1-8.022,0Zm6.993-3.673a5.372,5.372,0,0,0,0-6.561,4.26,4.26,0,0,0-5.975,0,5.405,5.405,0,0,0,0,6.583,4.232,4.232,0,0,0,5.975,0Z" transform="translate(-11.259)" fill="#fff"/>
    <path id="Path_48" data-name="Path 48" d="M259.352,364.422a7.612,7.612,0,0,1-2.9-2.844,8.365,8.365,0,0,1,0-8.2,7.618,7.618,0,0,1,2.9-2.832,8.431,8.431,0,0,1,8.033,0,7.486,7.486,0,0,1,2.877,2.832,8.481,8.481,0,0,1,0,8.2,7.552,7.552,0,0,1-2.877,2.844,8.409,8.409,0,0,1-8.022,0Zm6.993-3.673a5.372,5.372,0,0,0,0-6.561,4.26,4.26,0,0,0-5.975,0,5.4,5.4,0,0,0,0,6.583,4.232,4.232,0,0,0,5.975,0Z" transform="translate(-25.306 0)" fill="#fff"/>
    <path id="Path_49" data-name="Path 49" d="M305.581,349.93v15.529H301.8v-9.311l-3.474,9.311h-3.054l-3.5-9.338v9.338H288V349.93h4.47l4.359,10.755,4.315-10.755Z" transform="translate(-39.88 -0.179)" fill="#fff"/>
    <path id="Path_50" data-name="Path 50" d="M334.539,358.293a4,4,0,0,1,.918,5.245,4.071,4.071,0,0,1-1.737,1.483,6.217,6.217,0,0,1-2.689.553H325.3V350.128h5.532a6.228,6.228,0,0,1,2.678.52,3.812,3.812,0,0,1,1.66,1.405,3.673,3.673,0,0,1,.553,1.992,3.452,3.452,0,0,1-.741,2.268,4.132,4.132,0,0,1-1.958,1.295A3.247,3.247,0,0,1,334.539,358.293Zm-7.247-1.5h3.386a3.259,3.259,0,0,0,2.213-.664,2.567,2.567,0,0,0,0-3.673,3.319,3.319,0,0,0-2.213-.664h-3.319Zm5.908,6.4a2.44,2.44,0,0,0,.841-1.969,2.489,2.489,0,0,0-.885-2.025,3.579,3.579,0,0,0-2.368-.741h-3.5v5.438h3.563a3.546,3.546,0,0,0,2.368-.7Z" transform="translate(-56.545 -0.266)" fill="#fff"/>
    <path id="Path_51" data-name="Path 51" d="M352.288,364.559a7.386,7.386,0,0,1-2.8-2.81,8.525,8.525,0,0,1,0-8.121,7.385,7.385,0,0,1,2.8-2.81,8.165,8.165,0,0,1,7.856,0,7.325,7.325,0,0,1,2.766,2.8,8.652,8.652,0,0,1,0,8.143,7.325,7.325,0,0,1-2.766,2.8,8.166,8.166,0,0,1-7.856,0Zm6.827-1.494a5.3,5.3,0,0,0,2.036-2.147,7.435,7.435,0,0,0,0-6.473,5.31,5.31,0,0,0-2.025-2.135,6.047,6.047,0,0,0-5.842,0,5.311,5.311,0,0,0-2.025,2.135,7.435,7.435,0,0,0,0,6.473,5.3,5.3,0,0,0,2.036,2.146,6,6,0,0,0,5.82,0Z" transform="translate(-66.892 -0.125)" fill="#fff"/>
    <path id="Path_52" data-name="Path 52" d="M387.013,357.831l4.736,7.7h-2.279l-3.7-6.019-3.519,6.019h-2.213l4.713-7.7-4.736-7.745h2.257l3.718,6.041,3.541-6.041h2.257Z" transform="translate(-80.992 -0.246)" fill="#fff"/>
  </g>
</svg>
